# xmcd
#
# Track frame offsets: 
#        150
#        10535
#        22991
#        33921
#        43454
#        53512
#        63418
#        73840
#        84539
#        92756
#
# Disc length: 1352 seconds
#
# Revision: 0
# Processed by: cddbd v1.5.2PL0 Copyright (c) Steve Scherf et al.
# Submitted via: ExactAudioCopy v1.0b3
#
DISCID=7805460a
DTITLE=Buck Owens - Buck Owens At His Best
DYEAR=2006
DGENRE=Country
TTITLE0=Sweathearts In Heaven
TTITLE1=House Down The Block
TTITLE2=Down On The Corner Of Love
TTITLE3=There Goes My Love
TTITLE4=Hot Dog
TTITLE5=Rythm and Booze
TTITLE6=Right After The Dance
TTITLE7=It Don't Show On Me
TTITLE8=Guitar Rag
TTITLE9=Function At The Junction
EXTD=
EXTT0=
EXTT1=
EXTT2=
EXTT3=
EXTT4=
EXTT5=
EXTT6=
EXTT7=
EXTT8=
EXTT9=
PLAYORDER=
